<svg width="1818" height="1037" viewBox="0 0 1818 1037" fill="none" xmlns="http://www.w3.org/2000/svg">
<rect width="346.141" height="201.526" fill="#181212" fill-opacity="0.19"/>
<rect x="0.5" y="0.5" width="345.141" height="200.526" stroke="white" stroke-opacity="0.04"/>
<rect x="346.141" width="375.578" height="201.526" fill="#D9D9D9" fill-opacity="0.04"/>
<rect x="346.641" y="0.5" width="374.578" height="200.526" stroke="white" stroke-opacity="0.04"/>
<rect x="721.719" width="374.563" height="201.526" fill="#D9D9D9" fill-opacity="0.04"/>
<rect x="722.219" y="0.5" width="373.563" height="200.526" stroke="white" stroke-opacity="0.04"/>
<rect x="1096.28" width="375.578" height="201.526" fill="#716A6A" fill-opacity="0.17"/>
<rect x="1096.78" y="0.5" width="374.578" height="200.526" stroke="white" stroke-opacity="0.04"/>
<rect y="837.499" width="346.141" height="199.501" fill="#D9D9D9" fill-opacity="0.08"/>
<rect x="0.5" y="837.999" width="345.141" height="198.501" stroke="white" stroke-opacity="0.04"/>
<rect x="346.141" y="837.499" width="375.578" height="199.501" fill="#D9D9D9" fill-opacity="0.04"/>
<rect x="346.641" y="837.999" width="374.578" height="198.501" stroke="white" stroke-opacity="0.04"/>
<rect x="721.719" y="837.499" width="374.563" height="199.501" fill="#D9D9D9" fill-opacity="0.04"/>
<rect x="722.219" y="837.999" width="373.563" height="198.501" stroke="white" stroke-opacity="0.04"/>
<rect x="1096.28" y="837.499" width="375.578" height="199.501" fill="#D9D9D9" fill-opacity="0.04"/>
<rect x="1096.78" y="837.999" width="374.578" height="198.501" stroke="white" stroke-opacity="0.04"/>
<rect x="1471.86" width="346.141" height="201.526" fill="#D9D9D9" fill-opacity="0.04"/>
<rect x="1472.36" y="0.5" width="345.141" height="200.526" stroke="white" stroke-opacity="0.04"/>
<rect x="1471.86" y="837.499" width="346.141" height="199.501" fill="#625C5C" fill-opacity="0.22"/>
<rect x="1472.36" y="837.999" width="345.141" height="198.501" stroke="white" stroke-opacity="0.04"/>
</svg>
